<!--?xml version="1.0" encoding="utf-8"?-->
<!-- Generator: Adobe Illustrator 18.0.0, SVG Export Plug-In . SVG Version: 6.00 Build 0)  -->

<svg version="1.1" id="_x32_" xmlns="http://www.w3.org/2000/svg" xmlns:xlink="http://www.w3.org/1999/xlink" x="0px" y="0px" viewBox="0 0 512 512" style="width: 256px; height: 256px; opacity: 1;" xml:space="preserve">
<style type="text/css">
	.st0{fill:#4B4B4B;}
</style>
<g>
	<rect x="119.61" y="222.609" class="st0" width="273.135" height="34.98" style="fill: rgb(75, 75, 75);"></rect>
	<rect x="119.255" y="302.112" class="st0" width="273.137" height="34.98" style="fill: rgb(75, 75, 75);"></rect>
	<rect x="119.255" y="381.616" class="st0" width="197.271" height="34.98" style="fill: rgb(75, 75, 75);"></rect>
	<path class="st0" d="M439.279,55.043h-41.376v39.67c0,14.8-12.195,26.842-27.184,26.842h-54.026
		c-14.988,0-27.182-12.042-27.182-26.842v-39.67h-67.094v39.299c0,15.006-12.329,27.213-27.485,27.213h-53.424
		c-15.155,0-27.484-12.207-27.484-27.213V55.043H72.647c-26.906,0-48.796,21.691-48.796,48.354v360.247
		c0,26.664,21.89,48.356,48.796,48.356h366.631c26.947,0,48.87-21.692,48.87-48.356V103.397
		C488.149,76.734,466.225,55.043,439.279,55.043z M453.168,462.708c0,8.56-5.751,14.311-14.311,14.311H73.143
		c-8.56,0-14.311-5.751-14.311-14.311V178.086h394.337V462.708z" style="fill: rgb(75, 75, 75);"></path>
	<path class="st0" d="M141.524,102.5h53.393c4.52,0,8.198-3.651,8.198-8.138V20.489C203.115,9.191,193.845,0,182.45,0h-28.459
		c-11.396,0-20.668,9.191-20.668,20.489v73.872C133.323,98.849,137.001,102.5,141.524,102.5z" style="fill: rgb(75, 75, 75);"></path>
	<path class="st0" d="M316.693,102.5h54.026c4.348,0,7.884-3.509,7.884-7.824V20.175C378.603,9.051,369.475,0,358.252,0H329.16
		c-11.221,0-20.35,9.051-20.35,20.175v74.501C308.811,98.991,312.347,102.5,316.693,102.5z" style="fill: rgb(75, 75, 75);"></path>
</g>
</svg>
